<?xml version="1.0" encoding="UTF-8" standalone="no" ?>
<!DOCTYPE svg PUBLIC "-//W3C//DTD SVG 1.1//EN" "http://www.w3.org/Graphics/SVG/1.1/DTD/svg11.dtd">
<svg xmlns="http://www.w3.org/2000/svg" xmlns:xlink="http://www.w3.org/1999/xlink" version="1.1" width="640" height="480" viewBox="0 0 640 480" xml:space="preserve">
<desc>Created with Fabric.js 3.6.3</desc>
<defs>
</defs>
<g transform="matrix(0.66 0 0 0.71 309.97 239.66)"  >
<path style="stroke: none; stroke-width: 1; stroke-dasharray: none; stroke-linecap: butt; stroke-dashoffset: 0; stroke-linejoin: miter; stroke-miterlimit: 4; fill: rgb(91,131,204); fill-rule: nonzero; opacity: 1;"  transform=" translate(-255.25, -256)" d="M 52.683 397.719 c 44.79 64.144 119.147 106.111 203.316 106.111 c 82.092 0 154.849 -39.92 199.944 -101.4 l -24.278 -22.349 l 50.359 -22.349 c 10.427 -23.132 17.421 -48.144 20.301 -74.397 l 0.009 -0.114 l -96.361 -88.588 l 16.309 -122.39 C 378.311 32.426 319.988 8.171 255.999 8.171 c -136.872 0 -247.83 110.957 -247.83 247.829 c 0 2.427 0.045 4.845 0.113 7.254 c 0 -0.017 -0.001 -0.036 -0.002 -0.053 l 67.24 67.048 L 52.683 397.719 z" stroke-linecap="round" />
</g>
<g transform="matrix(0.66 0 0 0.71 220.96 188.53)"  >
<circle style="stroke: none; stroke-width: 1; stroke-dasharray: none; stroke-linecap: butt; stroke-dashoffset: 0; stroke-linejoin: miter; stroke-miterlimit: 4; fill: rgb(143,230,115); fill-rule: nonzero; opacity: 1;"  cx="0" cy="0" r="22.349" />
</g>
<g transform="matrix(0.66 0 0 0.71 265.65 122.52)"  >
<circle style="stroke: none; stroke-width: 1; stroke-dasharray: none; stroke-linecap: butt; stroke-dashoffset: 0; stroke-linejoin: miter; stroke-miterlimit: 4; fill: rgb(143,230,115); fill-rule: nonzero; opacity: 1;"  cx="0" cy="0" r="18.017" />
</g>
<g transform="matrix(0.66 0 0 0.71 310.46 379.62)"  >
<circle style="stroke: none; stroke-width: 1; stroke-dasharray: none; stroke-linecap: butt; stroke-dashoffset: 0; stroke-linejoin: miter; stroke-miterlimit: 4; fill: rgb(143,230,115); fill-rule: nonzero; opacity: 1;"  cx="0" cy="0" r="18.017" />
</g>
<g transform="matrix(0.66 0 0 0.71 372.47 184.09)"  >
<path style="stroke: none; stroke-width: 1; stroke-dasharray: none; stroke-linecap: butt; stroke-dashoffset: 0; stroke-linejoin: miter; stroke-miterlimit: 4; fill: rgb(143,230,115); fill-rule: nonzero; opacity: 1;"  transform=" translate(-349.96, -177.73)" d="M 503.828 255.999 c 0 -72.882 -31.464 -138.413 -81.546 -183.759 H 278.348 c -12.343 0 -22.349 10.006 -22.349 22.349 s 10.006 22.349 22.349 22.349 h 62.575 c 12.343 0 22.349 10.006 22.349 22.349 s -10.006 22.349 -22.349 22.349 H 218.431 c -12.343 0 -22.349 10.006 -22.349 22.349 c 0 12.343 10.006 22.349 22.349 22.349 h 122.492 c 12.343 0 22.349 10.006 22.349 22.349 s -10.006 22.349 -22.349 22.349 h -68.834 c -8.887 0 -16.092 7.204 -16.092 16.092 c 0 8.887 7.204 16.092 16.092 16.092 h 230.244 C 503.31 274.279 503.828 265.201 503.828 255.999 z" stroke-linecap="round" />
</g>
<g transform="matrix(0.66 0 0 0.71 426.4 327.76)"  >
<path style="stroke: none; stroke-width: 1; stroke-dasharray: none; stroke-linecap: butt; stroke-dashoffset: 0; stroke-linejoin: miter; stroke-miterlimit: 4; fill: rgb(143,230,115); fill-rule: nonzero; opacity: 1;"  transform=" translate(-431.67, -380.08)" d="M 482.05 357.731 h -78.421 c -12.343 0 -22.349 10.006 -22.349 22.349 s 10.006 22.349 22.349 22.349 h 52.314 C 466.122 388.555 474.901 373.591 482.05 357.731 z" stroke-linecap="round" />
</g>
<g transform="matrix(0.66 0 0 0.71 249.72 292.38)"  >
<path style="stroke: none; stroke-width: 1; stroke-dasharray: none; stroke-linecap: butt; stroke-dashoffset: 0; stroke-linejoin: miter; stroke-miterlimit: 4; fill: rgb(143,230,115); fill-rule: nonzero; opacity: 1;"  transform=" translate(-163.96, -330.25)" d="M 297.298 352.599 H 130.14 c -12.343 0 -22.349 -10.006 -22.349 -22.349 s 10.006 -22.349 22.349 -22.349 h 52.771 c 12.343 0 22.349 -10.006 22.349 -22.349 s -10.006 -22.349 -22.349 -22.349 H 49.524 H 8.28 c 1.421 49.767 17.519 95.851 44.109 134.097 h 244.908 c 12.343 0 22.349 -10.006 22.349 -22.349 S 309.641 352.599 297.298 352.599 z" stroke-linecap="round" />
</g>
<g transform="matrix(0.66 0 0 0.71 267.83 242.65)"  >
<path style="stroke: none; stroke-width: 1; stroke-dasharray: none; stroke-linecap: butt; stroke-dashoffset: 0; stroke-linejoin: miter; stroke-miterlimit: 4; fill: rgb(0,0,0); fill-rule: nonzero; opacity: 0.2;"  transform=" translate(-191.4, -260.2)" d="M 310.469 482.041 c -136.872 0 -247.83 -110.958 -247.83 -247.83 c 0 -93.893 52.219 -175.587 129.196 -217.636 C 86.069 44.848 8.169 141.319 8.169 255.999 c 0 136.872 110.958 247.83 247.83 247.83 c 42.978 0 83.398 -10.945 118.634 -30.193 C 354.165 479.108 332.661 482.041 310.469 482.041 z" stroke-linecap="round" />
</g>
</svg>